<mxfile host="app.diagrams.net" modified="2020-11-09T11:23:55.689Z" agent="5.0 (Windows NT 10.0; WOW64) AppleWebKit/537.36 (KHTML, like Gecko) Chrome/86.0.4240.75 Safari/537.36" etag="LV6B-uW2x_XxthnhtVGb" version="13.9.2" type="github">
  <diagram id="C5RBs43oDa-KdzZeNtuy" name="Page-1">
    <mxGraphModel dx="1038" dy="548" grid="1" gridSize="10" guides="1" tooltips="1" connect="1" arrows="1" fold="1" page="1" pageScale="1" pageWidth="827" pageHeight="1169" math="0" shadow="0">
      <root>
        <mxCell id="WIyWlLk6GJQsqaUBKTNV-0" />
        <mxCell id="WIyWlLk6GJQsqaUBKTNV-1" parent="WIyWlLk6GJQsqaUBKTNV-0" />
        <mxCell id="Jg66AKB08gl2eufpDUAn-2" value="" style="edgeStyle=orthogonalEdgeStyle;rounded=0;orthogonalLoop=1;jettySize=auto;html=1;" edge="1" parent="WIyWlLk6GJQsqaUBKTNV-1" source="Jg66AKB08gl2eufpDUAn-0" target="Jg66AKB08gl2eufpDUAn-1">
          <mxGeometry relative="1" as="geometry" />
        </mxCell>
        <mxCell id="Jg66AKB08gl2eufpDUAn-0" value="Program starts" style="rounded=0;whiteSpace=wrap;html=1;" vertex="1" parent="WIyWlLk6GJQsqaUBKTNV-1">
          <mxGeometry x="354" y="10" width="120" height="60" as="geometry" />
        </mxCell>
        <mxCell id="Jg66AKB08gl2eufpDUAn-4" value="" style="edgeStyle=orthogonalEdgeStyle;rounded=0;orthogonalLoop=1;jettySize=auto;html=1;" edge="1" parent="WIyWlLk6GJQsqaUBKTNV-1" source="Jg66AKB08gl2eufpDUAn-1" target="Jg66AKB08gl2eufpDUAn-3">
          <mxGeometry relative="1" as="geometry" />
        </mxCell>
        <mxCell id="Jg66AKB08gl2eufpDUAn-1" value="Calculator shows up" style="whiteSpace=wrap;html=1;rounded=0;" vertex="1" parent="WIyWlLk6GJQsqaUBKTNV-1">
          <mxGeometry x="354" y="150" width="120" height="60" as="geometry" />
        </mxCell>
        <mxCell id="Jg66AKB08gl2eufpDUAn-6" value="" style="edgeStyle=orthogonalEdgeStyle;rounded=0;orthogonalLoop=1;jettySize=auto;html=1;" edge="1" parent="WIyWlLk6GJQsqaUBKTNV-1" source="Jg66AKB08gl2eufpDUAn-3" target="Jg66AKB08gl2eufpDUAn-5">
          <mxGeometry relative="1" as="geometry" />
        </mxCell>
        <mxCell id="Jg66AKB08gl2eufpDUAn-14" value="" style="edgeStyle=orthogonalEdgeStyle;rounded=0;orthogonalLoop=1;jettySize=auto;html=1;" edge="1" parent="WIyWlLk6GJQsqaUBKTNV-1" source="Jg66AKB08gl2eufpDUAn-3" target="Jg66AKB08gl2eufpDUAn-13">
          <mxGeometry relative="1" as="geometry" />
        </mxCell>
        <mxCell id="Jg66AKB08gl2eufpDUAn-3" value="User inputs data" style="whiteSpace=wrap;html=1;rounded=0;" vertex="1" parent="WIyWlLk6GJQsqaUBKTNV-1">
          <mxGeometry x="354" y="290" width="120" height="60" as="geometry" />
        </mxCell>
        <mxCell id="Jg66AKB08gl2eufpDUAn-8" value="" style="edgeStyle=orthogonalEdgeStyle;rounded=0;orthogonalLoop=1;jettySize=auto;html=1;" edge="1" parent="WIyWlLk6GJQsqaUBKTNV-1" source="Jg66AKB08gl2eufpDUAn-5" target="Jg66AKB08gl2eufpDUAn-7">
          <mxGeometry relative="1" as="geometry" />
        </mxCell>
        <mxCell id="Jg66AKB08gl2eufpDUAn-5" value="Take in data" style="whiteSpace=wrap;html=1;rounded=0;" vertex="1" parent="WIyWlLk6GJQsqaUBKTNV-1">
          <mxGeometry x="354" y="430" width="120" height="60" as="geometry" />
        </mxCell>
        <mxCell id="Jg66AKB08gl2eufpDUAn-10" value="" style="edgeStyle=orthogonalEdgeStyle;rounded=0;orthogonalLoop=1;jettySize=auto;html=1;" edge="1" parent="WIyWlLk6GJQsqaUBKTNV-1" source="Jg66AKB08gl2eufpDUAn-7" target="Jg66AKB08gl2eufpDUAn-9">
          <mxGeometry relative="1" as="geometry" />
        </mxCell>
        <mxCell id="Jg66AKB08gl2eufpDUAn-7" value="Forward data to respective method" style="whiteSpace=wrap;html=1;rounded=0;" vertex="1" parent="WIyWlLk6GJQsqaUBKTNV-1">
          <mxGeometry x="354" y="570" width="120" height="60" as="geometry" />
        </mxCell>
        <mxCell id="Jg66AKB08gl2eufpDUAn-12" value="" style="edgeStyle=orthogonalEdgeStyle;rounded=0;orthogonalLoop=1;jettySize=auto;html=1;" edge="1" parent="WIyWlLk6GJQsqaUBKTNV-1" source="Jg66AKB08gl2eufpDUAn-9" target="Jg66AKB08gl2eufpDUAn-11">
          <mxGeometry relative="1" as="geometry" />
        </mxCell>
        <mxCell id="Jg66AKB08gl2eufpDUAn-9" value="Process data" style="whiteSpace=wrap;html=1;rounded=0;" vertex="1" parent="WIyWlLk6GJQsqaUBKTNV-1">
          <mxGeometry x="354" y="710" width="120" height="60" as="geometry" />
        </mxCell>
        <mxCell id="Jg66AKB08gl2eufpDUAn-11" value="console output" style="whiteSpace=wrap;html=1;rounded=0;" vertex="1" parent="WIyWlLk6GJQsqaUBKTNV-1">
          <mxGeometry x="354" y="850" width="120" height="60" as="geometry" />
        </mxCell>
        <mxCell id="Jg66AKB08gl2eufpDUAn-13" value="button clicks" style="whiteSpace=wrap;html=1;rounded=0;" vertex="1" parent="WIyWlLk6GJQsqaUBKTNV-1">
          <mxGeometry x="154" y="290" width="120" height="60" as="geometry" />
        </mxCell>
      </root>
    </mxGraphModel>
  </diagram>
</mxfile>
